<?xml version="1.0" encoding="UTF-8" standalone="no"?><!DOCTYPE svg PUBLIC "-//W3C//DTD SVG 1.1//EN" "http://www.w3.org/Graphics/SVG/1.1/DTD/svg11.dtd"><svg width="100%" height="100%" viewBox="0 0 637 645" version="1.1" xmlns="http://www.w3.org/2000/svg" xmlns:xlink="http://www.w3.org/1999/xlink" xml:space="preserve" xmlns:serif="http://www.serif.com/" style="fill-rule:evenodd;clip-rule:evenodd;stroke-linejoin:round;stroke-miterlimit:2;"><g id="Object-Icon---White-Background" serif:id="Object Icon - White Background"><path d="M612.865,484.427l0,-324.672l-294.756,-136.403l-294.754,136.403l0,324.672l294.754,136.406l294.756,-136.406" style="fill:#fff;"/><path d="M636.217,484.044c0.011,0.687 -0.009,1.371 -0.059,2.052c-0.283,3.996 -1.573,7.716 -3.617,10.907c-2.037,3.196 -4.871,5.929 -8.379,7.864c-0.597,0.331 -1.21,0.636 -1.838,0.915l-294.408,136.245c-6.221,2.879 -13.394,2.879 -19.615,-0l-294.754,-136.406c-8.258,-3.822 -13.545,-12.093 -13.545,-21.193l0,-324.672c0,-9.1 5.286,-17.371 13.545,-21.193l294.754,-136.403c6.221,-2.879 13.394,-2.879 19.615,-0l294.756,136.403c8.259,3.822 13.545,12.093 13.545,21.193l0,324.288Zm-46.705,-14.541l0,-294.822l-271.403,-125.597l-271.401,125.597l0,294.822l271.401,125.599l271.403,-125.599Z"/><g id="Light-Gray-Lines" serif:id="Light Gray Lines"><path d="M294.757,296.162c-0,-12.889 10.464,-23.352 23.352,-23.352c12.889,-0 23.352,10.464 23.352,23.352l0,324.672c-0,12.889 -10.464,23.352 -23.352,23.352c-12.889,-0 -23.352,-10.464 -23.352,-23.352l0,-324.672Z" style="fill:#bcbcbc;"/><path d="M603.057,138.563c11.697,-5.413 25.588,-0.311 31.001,11.385c5.413,11.697 0.311,25.588 -11.385,31.001l-294.756,136.406c-11.697,5.413 -25.588,0.311 -31.001,-11.385c-5.413,-11.697 -0.311,-25.588 11.385,-31.001l294.756,-136.406Z" style="fill:#bcbcbc;"/><path d="M327.917,274.969c11.697,5.413 16.798,19.304 11.385,31.001c-5.413,11.697 -19.304,16.798 -31.001,11.385l-294.754,-136.406c-11.697,-5.413 -16.798,-19.304 -11.385,-31.001c5.413,-11.697 19.304,-16.798 31.001,-11.385l294.754,136.406Z" style="fill:#bcbcbc;"/></g><path id="Dark-Gray-Lines" serif:id="Dark Gray Lines" d="M636.217,484.044c0.011,0.687 -0.009,1.371 -0.059,2.052c-0.283,3.996 -1.573,7.716 -3.617,10.907c-2.037,3.196 -4.871,5.929 -8.379,7.864c-0.597,0.331 -1.21,0.636 -1.838,0.915l-294.408,136.245c-6.221,2.879 -13.394,2.879 -19.615,-0l-294.754,-136.406c-8.258,-3.822 -13.545,-12.093 -13.545,-21.193l0,-324.672c-0,-9.1 5.286,-17.371 13.545,-21.193l294.754,-136.403c6.221,-2.879 13.394,-2.879 19.615,-0l294.756,136.403c8.259,3.822 13.545,12.093 13.545,21.193l0,324.288Zm-46.705,-14.541l0,-294.822l-271.403,-125.597l-271.401,125.597l0,294.822l271.401,125.599l271.403,-125.599Z" style="fill:#444;"/></g></svg>